<mxfile host="app.diagrams.net" modified="2024-05-22T04:53:02.166Z" agent="Mozilla/5.0 (Windows NT 10.0; Win64; x64) AppleWebKit/537.36 (KHTML, like Gecko) Chrome/125.0.0.0 Safari/537.36 Edg/125.0.0.0" etag="OuTdsEYllv2YE0Zg6Pl7" version="24.4.4" type="device">
  <diagram name="ページ1" id="3hS7-U1LirtSUUzdVNOy">
    <mxGraphModel dx="2037" dy="1877" grid="1" gridSize="10" guides="1" tooltips="1" connect="1" arrows="1" fold="1" page="1" pageScale="1" pageWidth="827" pageHeight="1169" math="0" shadow="0">
      <root>
        <mxCell id="0" />
        <mxCell id="1" parent="0" />
        <mxCell id="yhWROdCaG0-OCKjdrxtF-1" value="Admin" style="rounded=0;whiteSpace=wrap;html=1;" parent="1" vertex="1">
          <mxGeometry x="-820" y="-1160" width="120" height="60" as="geometry" />
        </mxCell>
        <mxCell id="yhWROdCaG0-OCKjdrxtF-2" value="system" style="rounded=0;whiteSpace=wrap;html=1;" parent="1" vertex="1">
          <mxGeometry x="-620" y="-1160" width="120" height="60" as="geometry" />
        </mxCell>
        <mxCell id="yhWROdCaG0-OCKjdrxtF-3" value="DB" style="rounded=0;whiteSpace=wrap;html=1;" parent="1" vertex="1">
          <mxGeometry x="-413" y="-1160" width="120" height="60" as="geometry" />
        </mxCell>
        <object label="tester" id="yhWROdCaG0-OCKjdrxtF-4">
          <mxCell style="rounded=0;whiteSpace=wrap;html=1;" parent="1" vertex="1">
            <mxGeometry x="-230" y="-1160" width="120" height="60" as="geometry" />
          </mxCell>
        </object>
        <object label="Dev" id="yhWROdCaG0-OCKjdrxtF-5">
          <mxCell style="rounded=0;whiteSpace=wrap;html=1;" parent="1" vertex="1">
            <mxGeometry x="-40" y="-1160" width="120" height="60" as="geometry" />
          </mxCell>
        </object>
        <object label="PL" id="yhWROdCaG0-OCKjdrxtF-6">
          <mxCell style="rounded=0;whiteSpace=wrap;html=1;" parent="1" vertex="1">
            <mxGeometry x="150" y="-1160" width="120" height="60" as="geometry" />
          </mxCell>
        </object>
        <mxCell id="yhWROdCaG0-OCKjdrxtF-7" value="" style="endArrow=none;dashed=1;html=1;rounded=0;fontSize=12;startSize=8;endSize=8;curved=1;" parent="1" edge="1">
          <mxGeometry width="50" height="50" relative="1" as="geometry">
            <mxPoint x="-560" y="760" as="sourcePoint" />
            <mxPoint x="-560.5" y="-1100" as="targetPoint" />
          </mxGeometry>
        </mxCell>
        <mxCell id="yhWROdCaG0-OCKjdrxtF-8" value="" style="endArrow=none;dashed=1;html=1;rounded=0;fontSize=12;startSize=8;endSize=8;curved=1;" parent="1" edge="1">
          <mxGeometry width="50" height="50" relative="1" as="geometry">
            <mxPoint x="-353" y="760" as="sourcePoint" />
            <mxPoint x="-353.5" y="-1100" as="targetPoint" />
          </mxGeometry>
        </mxCell>
        <mxCell id="yhWROdCaG0-OCKjdrxtF-9" value="" style="endArrow=none;dashed=1;html=1;rounded=0;fontSize=12;startSize=8;endSize=8;curved=1;" parent="1" edge="1">
          <mxGeometry width="50" height="50" relative="1" as="geometry">
            <mxPoint x="-160" y="760" as="sourcePoint" />
            <mxPoint x="-160" y="-1100" as="targetPoint" />
          </mxGeometry>
        </mxCell>
        <mxCell id="yhWROdCaG0-OCKjdrxtF-10" value="" style="endArrow=none;dashed=1;html=1;rounded=0;fontSize=12;startSize=8;endSize=8;curved=1;" parent="1" edge="1">
          <mxGeometry width="50" height="50" relative="1" as="geometry">
            <mxPoint x="20" y="760" as="sourcePoint" />
            <mxPoint x="19.5" y="-1100" as="targetPoint" />
          </mxGeometry>
        </mxCell>
        <mxCell id="yhWROdCaG0-OCKjdrxtF-11" value="" style="endArrow=none;dashed=1;html=1;rounded=0;fontSize=12;startSize=8;endSize=8;curved=1;" parent="1" edge="1">
          <mxGeometry width="50" height="50" relative="1" as="geometry">
            <mxPoint x="-760" y="760" as="sourcePoint" />
            <mxPoint x="-760.5" y="-1100" as="targetPoint" />
          </mxGeometry>
        </mxCell>
        <mxCell id="yhWROdCaG0-OCKjdrxtF-12" value="" style="endArrow=none;dashed=1;html=1;rounded=0;fontSize=12;startSize=8;endSize=8;curved=1;" parent="1" edge="1">
          <mxGeometry width="50" height="50" relative="1" as="geometry">
            <mxPoint x="210" y="760" as="sourcePoint" />
            <mxPoint x="209.5" y="-1100" as="targetPoint" />
          </mxGeometry>
        </mxCell>
        <mxCell id="yhWROdCaG0-OCKjdrxtF-13" value="" style="endArrow=classic;html=1;rounded=0;fontSize=12;curved=1;dashed=1;" parent="1" edge="1">
          <mxGeometry width="50" height="50" relative="1" as="geometry">
            <mxPoint x="-760" y="-1069" as="sourcePoint" />
            <mxPoint x="-560" y="-1070" as="targetPoint" />
          </mxGeometry>
        </mxCell>
        <mxCell id="yhWROdCaG0-OCKjdrxtF-23" value="프로젝트 생성 요청" style="edgeLabel;html=1;align=center;verticalAlign=middle;resizable=0;points=[];fontSize=12;" parent="yhWROdCaG0-OCKjdrxtF-13" vertex="1" connectable="0">
          <mxGeometry x="0.0619" y="3" relative="1" as="geometry">
            <mxPoint x="-9" y="3" as="offset" />
          </mxGeometry>
        </mxCell>
        <mxCell id="yhWROdCaG0-OCKjdrxtF-15" value="" style="endArrow=classic;html=1;rounded=0;fontSize=12;startSize=8;endSize=8;curved=1;dashed=1;" parent="1" edge="1">
          <mxGeometry width="50" height="50" relative="1" as="geometry">
            <mxPoint x="-560" y="-1050" as="sourcePoint" />
            <mxPoint x="-360" y="-1050" as="targetPoint" />
          </mxGeometry>
        </mxCell>
        <mxCell id="yhWROdCaG0-OCKjdrxtF-24" value="DB: 프로젝트 정보 저장" style="edgeLabel;html=1;align=center;verticalAlign=middle;resizable=0;points=[];fontSize=12;" parent="yhWROdCaG0-OCKjdrxtF-15" vertex="1" connectable="0">
          <mxGeometry x="-0.1846" y="4" relative="1" as="geometry">
            <mxPoint x="17" y="4" as="offset" />
          </mxGeometry>
        </mxCell>
        <mxCell id="yhWROdCaG0-OCKjdrxtF-18" value="" style="endArrow=classic;html=1;rounded=0;fontSize=12;startSize=8;endSize=8;curved=1;dashed=1;" parent="1" edge="1">
          <mxGeometry width="50" height="50" relative="1" as="geometry">
            <mxPoint x="-360" y="-1020" as="sourcePoint" />
            <mxPoint x="-560" y="-1020" as="targetPoint" />
          </mxGeometry>
        </mxCell>
        <mxCell id="yhWROdCaG0-OCKjdrxtF-25" value="저장 완료 응답" style="edgeLabel;html=1;align=center;verticalAlign=middle;resizable=0;points=[];fontSize=12;" parent="yhWROdCaG0-OCKjdrxtF-18" vertex="1" connectable="0">
          <mxGeometry x="-0.0154" y="-3" relative="1" as="geometry">
            <mxPoint x="-6" y="3" as="offset" />
          </mxGeometry>
        </mxCell>
        <mxCell id="yhWROdCaG0-OCKjdrxtF-26" value="" style="endArrow=classic;html=1;rounded=0;fontSize=12;startSize=8;endSize=8;curved=1;dashed=1;" parent="1" edge="1">
          <mxGeometry width="50" height="50" relative="1" as="geometry">
            <mxPoint x="-560" y="-1000" as="sourcePoint" />
            <mxPoint x="-760" y="-1000" as="targetPoint" />
          </mxGeometry>
        </mxCell>
        <mxCell id="yhWROdCaG0-OCKjdrxtF-27" value="프로젝트 생성 완료 응답" style="edgeLabel;html=1;align=center;verticalAlign=middle;resizable=0;points=[];fontSize=12;" parent="yhWROdCaG0-OCKjdrxtF-26" vertex="1" connectable="0">
          <mxGeometry x="-0.0154" y="-3" relative="1" as="geometry">
            <mxPoint x="-6" y="3" as="offset" />
          </mxGeometry>
        </mxCell>
        <mxCell id="yhWROdCaG0-OCKjdrxtF-28" value="" style="endArrow=classic;html=1;rounded=0;fontSize=12;startSize=8;endSize=8;curved=1;dashed=1;" parent="1" edge="1">
          <mxGeometry width="50" height="50" relative="1" as="geometry">
            <mxPoint x="-760" y="-980" as="sourcePoint" />
            <mxPoint x="-560" y="-980" as="targetPoint" />
          </mxGeometry>
        </mxCell>
        <mxCell id="yhWROdCaG0-OCKjdrxtF-29" value="유저 생성 요청" style="edgeLabel;html=1;align=center;verticalAlign=middle;resizable=0;points=[];fontSize=12;" parent="yhWROdCaG0-OCKjdrxtF-28" vertex="1" connectable="0">
          <mxGeometry x="-0.0154" y="-3" relative="1" as="geometry">
            <mxPoint x="-6" y="-3" as="offset" />
          </mxGeometry>
        </mxCell>
        <mxCell id="yhWROdCaG0-OCKjdrxtF-30" value="" style="endArrow=classic;html=1;rounded=0;fontSize=12;startSize=8;endSize=8;curved=1;dashed=1;" parent="1" edge="1">
          <mxGeometry width="50" height="50" relative="1" as="geometry">
            <mxPoint x="-560" y="-950" as="sourcePoint" />
            <mxPoint x="-350" y="-950" as="targetPoint" />
          </mxGeometry>
        </mxCell>
        <mxCell id="yhWROdCaG0-OCKjdrxtF-35" value="유저 정보 저장" style="edgeLabel;html=1;align=center;verticalAlign=middle;resizable=0;points=[];fontSize=12;" parent="yhWROdCaG0-OCKjdrxtF-30" vertex="1" connectable="0">
          <mxGeometry x="-0.1333" y="-3" relative="1" as="geometry">
            <mxPoint x="4" y="-3" as="offset" />
          </mxGeometry>
        </mxCell>
        <mxCell id="yhWROdCaG0-OCKjdrxtF-36" value="" style="endArrow=classic;html=1;rounded=0;fontSize=12;startSize=8;endSize=8;curved=1;dashed=1;" parent="1" edge="1">
          <mxGeometry width="50" height="50" relative="1" as="geometry">
            <mxPoint x="-358" y="-930" as="sourcePoint" />
            <mxPoint x="-560" y="-930" as="targetPoint" />
          </mxGeometry>
        </mxCell>
        <mxCell id="yhWROdCaG0-OCKjdrxtF-37" value="저장 완료 응답" style="edgeLabel;html=1;align=center;verticalAlign=middle;resizable=0;points=[];fontSize=12;" parent="yhWROdCaG0-OCKjdrxtF-36" vertex="1" connectable="0">
          <mxGeometry x="-0.1333" y="-3" relative="1" as="geometry">
            <mxPoint x="-14" y="3" as="offset" />
          </mxGeometry>
        </mxCell>
        <mxCell id="yhWROdCaG0-OCKjdrxtF-38" value="" style="endArrow=classic;html=1;rounded=0;fontSize=12;startSize=8;endSize=8;curved=1;dashed=1;" parent="1" edge="1">
          <mxGeometry width="50" height="50" relative="1" as="geometry">
            <mxPoint x="-560" y="-910" as="sourcePoint" />
            <mxPoint x="-760" y="-910" as="targetPoint" />
          </mxGeometry>
        </mxCell>
        <mxCell id="yhWROdCaG0-OCKjdrxtF-39" value="유저 생성 완료 응답" style="edgeLabel;html=1;align=center;verticalAlign=middle;resizable=0;points=[];fontSize=12;" parent="yhWROdCaG0-OCKjdrxtF-38" vertex="1" connectable="0">
          <mxGeometry x="-0.1333" y="-3" relative="1" as="geometry">
            <mxPoint x="-14" y="3" as="offset" />
          </mxGeometry>
        </mxCell>
        <mxCell id="yhWROdCaG0-OCKjdrxtF-40" value="" style="endArrow=classic;html=1;rounded=0;fontSize=12;startSize=8;endSize=8;curved=1;dashed=1;" parent="1" edge="1">
          <mxGeometry width="50" height="50" relative="1" as="geometry">
            <mxPoint x="-160" y="-900" as="sourcePoint" />
            <mxPoint x="-560" y="-900" as="targetPoint" />
          </mxGeometry>
        </mxCell>
        <mxCell id="yhWROdCaG0-OCKjdrxtF-41" value="이슈 생성 요청" style="edgeLabel;html=1;align=center;verticalAlign=middle;resizable=0;points=[];fontSize=12;" parent="yhWROdCaG0-OCKjdrxtF-40" vertex="1" connectable="0">
          <mxGeometry x="-0.1333" y="-3" relative="1" as="geometry">
            <mxPoint x="-14" y="3" as="offset" />
          </mxGeometry>
        </mxCell>
        <mxCell id="yhWROdCaG0-OCKjdrxtF-45" value="" style="endArrow=classic;html=1;rounded=0;fontSize=12;startSize=8;endSize=8;curved=1;dashed=1;" parent="1" edge="1">
          <mxGeometry width="50" height="50" relative="1" as="geometry">
            <mxPoint x="-560" y="-870" as="sourcePoint" />
            <mxPoint x="-350" y="-870" as="targetPoint" />
          </mxGeometry>
        </mxCell>
        <mxCell id="yhWROdCaG0-OCKjdrxtF-46" value="이슈 정보 저장" style="edgeLabel;html=1;align=center;verticalAlign=middle;resizable=0;points=[];fontSize=12;" parent="yhWROdCaG0-OCKjdrxtF-45" vertex="1" connectable="0">
          <mxGeometry x="-0.0154" y="-3" relative="1" as="geometry">
            <mxPoint x="-6" y="-3" as="offset" />
          </mxGeometry>
        </mxCell>
        <mxCell id="yhWROdCaG0-OCKjdrxtF-47" value="" style="endArrow=classic;html=1;rounded=0;fontSize=12;startSize=8;endSize=8;curved=1;dashed=1;" parent="1" edge="1">
          <mxGeometry width="50" height="50" relative="1" as="geometry">
            <mxPoint x="-350" y="-830" as="sourcePoint" />
            <mxPoint x="-560" y="-830" as="targetPoint" />
          </mxGeometry>
        </mxCell>
        <mxCell id="yhWROdCaG0-OCKjdrxtF-48" value="저장 완료 응답" style="edgeLabel;html=1;align=center;verticalAlign=middle;resizable=0;points=[];fontSize=12;" parent="yhWROdCaG0-OCKjdrxtF-47" vertex="1" connectable="0">
          <mxGeometry x="-0.1333" y="-3" relative="1" as="geometry">
            <mxPoint x="-14" y="3" as="offset" />
          </mxGeometry>
        </mxCell>
        <mxCell id="yhWROdCaG0-OCKjdrxtF-49" value="" style="endArrow=classic;html=1;rounded=0;fontSize=12;startSize=8;endSize=8;curved=1;dashed=1;" parent="1" edge="1">
          <mxGeometry width="50" height="50" relative="1" as="geometry">
            <mxPoint x="-560" y="-800" as="sourcePoint" />
            <mxPoint x="-160" y="-800" as="targetPoint" />
          </mxGeometry>
        </mxCell>
        <mxCell id="yhWROdCaG0-OCKjdrxtF-50" value="이슈 생성 완료 응답" style="edgeLabel;html=1;align=center;verticalAlign=middle;resizable=0;points=[];fontSize=12;" parent="yhWROdCaG0-OCKjdrxtF-49" vertex="1" connectable="0">
          <mxGeometry x="-0.0154" y="-3" relative="1" as="geometry">
            <mxPoint x="-2" y="-3" as="offset" />
          </mxGeometry>
        </mxCell>
        <mxCell id="yhWROdCaG0-OCKjdrxtF-51" value="" style="endArrow=classic;html=1;rounded=0;fontSize=12;startSize=8;endSize=8;curved=1;dashed=1;" parent="1" edge="1">
          <mxGeometry width="50" height="50" relative="1" as="geometry">
            <mxPoint x="-160" y="-770" as="sourcePoint" />
            <mxPoint x="-560" y="-770" as="targetPoint" />
          </mxGeometry>
        </mxCell>
        <mxCell id="yhWROdCaG0-OCKjdrxtF-52" value="코멘트 추가 요청" style="edgeLabel;html=1;align=center;verticalAlign=middle;resizable=0;points=[];fontSize=12;" parent="yhWROdCaG0-OCKjdrxtF-51" vertex="1" connectable="0">
          <mxGeometry x="-0.1333" y="-3" relative="1" as="geometry">
            <mxPoint x="-14" y="3" as="offset" />
          </mxGeometry>
        </mxCell>
        <mxCell id="yhWROdCaG0-OCKjdrxtF-53" value="" style="endArrow=classic;html=1;rounded=0;fontSize=12;startSize=8;endSize=8;curved=1;dashed=1;" parent="1" edge="1">
          <mxGeometry width="50" height="50" relative="1" as="geometry">
            <mxPoint x="-560" y="-740" as="sourcePoint" />
            <mxPoint x="-350" y="-740" as="targetPoint" />
          </mxGeometry>
        </mxCell>
        <mxCell id="yhWROdCaG0-OCKjdrxtF-54" value="코멘트 정보 저장" style="edgeLabel;html=1;align=center;verticalAlign=middle;resizable=0;points=[];fontSize=12;" parent="yhWROdCaG0-OCKjdrxtF-53" vertex="1" connectable="0">
          <mxGeometry x="-0.0154" y="-3" relative="1" as="geometry">
            <mxPoint x="-6" y="-3" as="offset" />
          </mxGeometry>
        </mxCell>
        <mxCell id="yhWROdCaG0-OCKjdrxtF-55" value="" style="endArrow=classic;html=1;rounded=0;fontSize=12;startSize=8;endSize=8;curved=1;dashed=1;" parent="1" edge="1">
          <mxGeometry width="50" height="50" relative="1" as="geometry">
            <mxPoint x="-358" y="-700" as="sourcePoint" />
            <mxPoint x="-560" y="-700" as="targetPoint" />
          </mxGeometry>
        </mxCell>
        <mxCell id="yhWROdCaG0-OCKjdrxtF-56" value="저장 완료 응답" style="edgeLabel;html=1;align=center;verticalAlign=middle;resizable=0;points=[];fontSize=12;" parent="yhWROdCaG0-OCKjdrxtF-55" vertex="1" connectable="0">
          <mxGeometry x="-0.1333" y="-3" relative="1" as="geometry">
            <mxPoint x="-14" y="3" as="offset" />
          </mxGeometry>
        </mxCell>
        <mxCell id="yhWROdCaG0-OCKjdrxtF-57" value="" style="endArrow=classic;html=1;rounded=0;fontSize=12;startSize=8;endSize=8;curved=1;dashed=1;" parent="1" edge="1">
          <mxGeometry width="50" height="50" relative="1" as="geometry">
            <mxPoint x="-560" y="-670" as="sourcePoint" />
            <mxPoint x="-160" y="-670" as="targetPoint" />
          </mxGeometry>
        </mxCell>
        <mxCell id="yhWROdCaG0-OCKjdrxtF-58" value="코멘트 추가 완료 응답" style="edgeLabel;html=1;align=center;verticalAlign=middle;resizable=0;points=[];fontSize=12;" parent="yhWROdCaG0-OCKjdrxtF-57" vertex="1" connectable="0">
          <mxGeometry x="-0.0154" y="-3" relative="1" as="geometry">
            <mxPoint x="-2" y="-3" as="offset" />
          </mxGeometry>
        </mxCell>
        <mxCell id="yhWROdCaG0-OCKjdrxtF-59" value="" style="endArrow=classic;html=1;rounded=0;fontSize=12;startSize=8;endSize=8;curved=1;dashed=1;" parent="1" edge="1">
          <mxGeometry width="50" height="50" relative="1" as="geometry">
            <mxPoint x="207.5" y="-640" as="sourcePoint" />
            <mxPoint x="-560" y="-640" as="targetPoint" />
          </mxGeometry>
        </mxCell>
        <mxCell id="yhWROdCaG0-OCKjdrxtF-60" value="모든 이슈 검색 요청" style="edgeLabel;html=1;align=center;verticalAlign=middle;resizable=0;points=[];fontSize=12;" parent="yhWROdCaG0-OCKjdrxtF-59" vertex="1" connectable="0">
          <mxGeometry x="-0.1333" y="-3" relative="1" as="geometry">
            <mxPoint x="-24" y="3" as="offset" />
          </mxGeometry>
        </mxCell>
        <mxCell id="yhWROdCaG0-OCKjdrxtF-61" value="" style="endArrow=classic;html=1;rounded=0;fontSize=12;startSize=8;endSize=8;curved=1;dashed=1;" parent="1" edge="1">
          <mxGeometry width="50" height="50" relative="1" as="geometry">
            <mxPoint x="-560" y="-610" as="sourcePoint" />
            <mxPoint x="-350" y="-610" as="targetPoint" />
          </mxGeometry>
        </mxCell>
        <mxCell id="yhWROdCaG0-OCKjdrxtF-62" value="모든 이슈 조회" style="edgeLabel;html=1;align=center;verticalAlign=middle;resizable=0;points=[];fontSize=12;" parent="yhWROdCaG0-OCKjdrxtF-61" vertex="1" connectable="0">
          <mxGeometry x="-0.0154" y="-3" relative="1" as="geometry">
            <mxPoint x="-3" y="-3" as="offset" />
          </mxGeometry>
        </mxCell>
        <mxCell id="yhWROdCaG0-OCKjdrxtF-63" value="" style="endArrow=classic;html=1;rounded=0;fontSize=12;startSize=8;endSize=8;curved=1;dashed=1;" parent="1" edge="1">
          <mxGeometry width="50" height="50" relative="1" as="geometry">
            <mxPoint x="-350" y="-585" as="sourcePoint" />
            <mxPoint x="-560" y="-585" as="targetPoint" />
          </mxGeometry>
        </mxCell>
        <mxCell id="yhWROdCaG0-OCKjdrxtF-64" value="이슈 목록 응답" style="edgeLabel;html=1;align=center;verticalAlign=middle;resizable=0;points=[];fontSize=12;" parent="yhWROdCaG0-OCKjdrxtF-63" vertex="1" connectable="0">
          <mxGeometry x="-0.1333" y="-3" relative="1" as="geometry">
            <mxPoint x="-19" y="4" as="offset" />
          </mxGeometry>
        </mxCell>
        <mxCell id="yhWROdCaG0-OCKjdrxtF-65" value="" style="endArrow=classic;html=1;rounded=0;fontSize=12;startSize=8;endSize=8;curved=1;dashed=1;" parent="1" edge="1">
          <mxGeometry width="50" height="50" relative="1" as="geometry">
            <mxPoint x="-560" y="-560" as="sourcePoint" />
            <mxPoint x="210" y="-560" as="targetPoint" />
          </mxGeometry>
        </mxCell>
        <mxCell id="yhWROdCaG0-OCKjdrxtF-67" value="이슈 목록 응답" style="edgeLabel;html=1;align=center;verticalAlign=middle;resizable=0;points=[];fontSize=12;" parent="yhWROdCaG0-OCKjdrxtF-65" vertex="1" connectable="0">
          <mxGeometry x="-0.2355" y="4" relative="1" as="geometry">
            <mxPoint x="-14" y="4" as="offset" />
          </mxGeometry>
        </mxCell>
        <mxCell id="yhWROdCaG0-OCKjdrxtF-68" value="" style="endArrow=classic;html=1;rounded=0;fontSize=12;startSize=8;endSize=8;curved=1;dashed=1;" parent="1" edge="1">
          <mxGeometry width="50" height="50" relative="1" as="geometry">
            <mxPoint x="207.5" y="-530" as="sourcePoint" />
            <mxPoint x="-560" y="-530" as="targetPoint" />
          </mxGeometry>
        </mxCell>
        <mxCell id="yhWROdCaG0-OCKjdrxtF-69" value="new 상태의 이슈 검색 요청" style="edgeLabel;html=1;align=center;verticalAlign=middle;resizable=0;points=[];fontSize=12;" parent="yhWROdCaG0-OCKjdrxtF-68" vertex="1" connectable="0">
          <mxGeometry x="-0.1333" y="-3" relative="1" as="geometry">
            <mxPoint x="-24" y="3" as="offset" />
          </mxGeometry>
        </mxCell>
        <mxCell id="yhWROdCaG0-OCKjdrxtF-70" value="" style="endArrow=classic;html=1;rounded=0;fontSize=12;startSize=8;endSize=8;curved=1;dashed=1;" parent="1" edge="1">
          <mxGeometry width="50" height="50" relative="1" as="geometry">
            <mxPoint x="-560" y="-500" as="sourcePoint" />
            <mxPoint x="-350" y="-500" as="targetPoint" />
          </mxGeometry>
        </mxCell>
        <mxCell id="yhWROdCaG0-OCKjdrxtF-71" value="new 상태의 이슈 조회" style="edgeLabel;html=1;align=center;verticalAlign=middle;resizable=0;points=[];fontSize=12;" parent="yhWROdCaG0-OCKjdrxtF-70" vertex="1" connectable="0">
          <mxGeometry x="-0.0154" y="-3" relative="1" as="geometry">
            <mxPoint x="-6" y="-3" as="offset" />
          </mxGeometry>
        </mxCell>
        <mxCell id="yhWROdCaG0-OCKjdrxtF-72" value="" style="endArrow=classic;html=1;rounded=0;fontSize=12;startSize=8;endSize=8;curved=1;dashed=1;" parent="1" edge="1">
          <mxGeometry width="50" height="50" relative="1" as="geometry">
            <mxPoint x="-350" y="-470" as="sourcePoint" />
            <mxPoint x="-560" y="-470" as="targetPoint" />
          </mxGeometry>
        </mxCell>
        <mxCell id="yhWROdCaG0-OCKjdrxtF-73" value="new 상태의 이슈 목록 응답" style="edgeLabel;html=1;align=center;verticalAlign=middle;resizable=0;points=[];fontSize=12;" parent="yhWROdCaG0-OCKjdrxtF-72" vertex="1" connectable="0">
          <mxGeometry x="-0.1333" y="-3" relative="1" as="geometry">
            <mxPoint x="-14" y="3" as="offset" />
          </mxGeometry>
        </mxCell>
        <mxCell id="yhWROdCaG0-OCKjdrxtF-74" value="" style="endArrow=classic;html=1;rounded=0;fontSize=12;startSize=8;endSize=8;curved=1;dashed=1;" parent="1" edge="1">
          <mxGeometry width="50" height="50" relative="1" as="geometry">
            <mxPoint x="-560" y="-450" as="sourcePoint" />
            <mxPoint x="210" y="-450" as="targetPoint" />
          </mxGeometry>
        </mxCell>
        <mxCell id="yhWROdCaG0-OCKjdrxtF-75" value="new 상태의 이슈 목록 응답" style="edgeLabel;html=1;align=center;verticalAlign=middle;resizable=0;points=[];fontSize=12;" parent="yhWROdCaG0-OCKjdrxtF-74" vertex="1" connectable="0">
          <mxGeometry x="-0.2355" y="4" relative="1" as="geometry">
            <mxPoint x="-4" y="4" as="offset" />
          </mxGeometry>
        </mxCell>
        <mxCell id="yhWROdCaG0-OCKjdrxtF-76" value="" style="endArrow=classic;html=1;rounded=0;fontSize=12;startSize=8;endSize=8;curved=1;dashed=1;" parent="1" edge="1">
          <mxGeometry width="50" height="50" relative="1" as="geometry">
            <mxPoint x="207.5" y="-430" as="sourcePoint" />
            <mxPoint x="-560" y="-430" as="targetPoint" />
          </mxGeometry>
        </mxCell>
        <mxCell id="yhWROdCaG0-OCKjdrxtF-77" value="코멘트 추가 요청" style="edgeLabel;html=1;align=center;verticalAlign=middle;resizable=0;points=[];fontSize=12;" parent="yhWROdCaG0-OCKjdrxtF-76" vertex="1" connectable="0">
          <mxGeometry x="-0.1333" y="-3" relative="1" as="geometry">
            <mxPoint x="-14" y="3" as="offset" />
          </mxGeometry>
        </mxCell>
        <mxCell id="yhWROdCaG0-OCKjdrxtF-78" value="" style="endArrow=classic;html=1;rounded=0;fontSize=12;startSize=8;endSize=8;curved=1;dashed=1;" parent="1" edge="1">
          <mxGeometry width="50" height="50" relative="1" as="geometry">
            <mxPoint x="-560" y="-400" as="sourcePoint" />
            <mxPoint x="-350" y="-400" as="targetPoint" />
          </mxGeometry>
        </mxCell>
        <mxCell id="yhWROdCaG0-OCKjdrxtF-79" value="코멘트 정보 저장" style="edgeLabel;html=1;align=center;verticalAlign=middle;resizable=0;points=[];fontSize=12;" parent="yhWROdCaG0-OCKjdrxtF-78" vertex="1" connectable="0">
          <mxGeometry x="-0.0154" y="-3" relative="1" as="geometry">
            <mxPoint x="-6" y="-3" as="offset" />
          </mxGeometry>
        </mxCell>
        <mxCell id="yhWROdCaG0-OCKjdrxtF-80" value="" style="endArrow=classic;html=1;rounded=0;fontSize=12;startSize=8;endSize=8;curved=1;dashed=1;" parent="1" edge="1">
          <mxGeometry width="50" height="50" relative="1" as="geometry">
            <mxPoint x="-350" y="-370" as="sourcePoint" />
            <mxPoint x="-560" y="-370" as="targetPoint" />
          </mxGeometry>
        </mxCell>
        <mxCell id="yhWROdCaG0-OCKjdrxtF-81" value="저장 완료 응답" style="edgeLabel;html=1;align=center;verticalAlign=middle;resizable=0;points=[];fontSize=12;" parent="yhWROdCaG0-OCKjdrxtF-80" vertex="1" connectable="0">
          <mxGeometry x="-0.1333" y="-3" relative="1" as="geometry">
            <mxPoint x="-19" y="3" as="offset" />
          </mxGeometry>
        </mxCell>
        <mxCell id="yhWROdCaG0-OCKjdrxtF-82" value="" style="endArrow=classic;html=1;rounded=0;fontSize=12;startSize=8;endSize=8;curved=1;dashed=1;" parent="1" edge="1">
          <mxGeometry width="50" height="50" relative="1" as="geometry">
            <mxPoint x="-560" y="-350" as="sourcePoint" />
            <mxPoint x="210" y="-350" as="targetPoint" />
          </mxGeometry>
        </mxCell>
        <mxCell id="yhWROdCaG0-OCKjdrxtF-83" value="코멘트 추가 완료 응답" style="edgeLabel;html=1;align=center;verticalAlign=middle;resizable=0;points=[];fontSize=12;" parent="yhWROdCaG0-OCKjdrxtF-82" vertex="1" connectable="0">
          <mxGeometry x="-0.2355" y="4" relative="1" as="geometry">
            <mxPoint x="-4" y="4" as="offset" />
          </mxGeometry>
        </mxCell>
        <mxCell id="yhWROdCaG0-OCKjdrxtF-84" value="" style="endArrow=classic;html=1;rounded=0;fontSize=12;startSize=8;endSize=8;curved=1;dashed=1;" parent="1" edge="1">
          <mxGeometry width="50" height="50" relative="1" as="geometry">
            <mxPoint x="20" y="-320" as="sourcePoint" />
            <mxPoint x="-560" y="-320" as="targetPoint" />
          </mxGeometry>
        </mxCell>
        <mxCell id="yhWROdCaG0-OCKjdrxtF-85" value="자신에게 할당된 이슈 검색 요청" style="edgeLabel;html=1;align=center;verticalAlign=middle;resizable=0;points=[];fontSize=12;" parent="yhWROdCaG0-OCKjdrxtF-84" vertex="1" connectable="0">
          <mxGeometry x="-0.1333" y="-3" relative="1" as="geometry">
            <mxPoint x="-14" y="3" as="offset" />
          </mxGeometry>
        </mxCell>
        <mxCell id="yhWROdCaG0-OCKjdrxtF-86" value="" style="endArrow=classic;html=1;rounded=0;fontSize=12;startSize=8;endSize=8;curved=1;dashed=1;" parent="1" edge="1">
          <mxGeometry width="50" height="50" relative="1" as="geometry">
            <mxPoint x="-560" y="-290" as="sourcePoint" />
            <mxPoint x="-350" y="-290" as="targetPoint" />
          </mxGeometry>
        </mxCell>
        <mxCell id="yhWROdCaG0-OCKjdrxtF-87" value="할당된 이슈 조회" style="edgeLabel;html=1;align=center;verticalAlign=middle;resizable=0;points=[];fontSize=12;" parent="yhWROdCaG0-OCKjdrxtF-86" vertex="1" connectable="0">
          <mxGeometry x="-0.0154" y="-3" relative="1" as="geometry">
            <mxPoint x="-3" y="-3" as="offset" />
          </mxGeometry>
        </mxCell>
        <mxCell id="yhWROdCaG0-OCKjdrxtF-88" value="" style="endArrow=classic;html=1;rounded=0;fontSize=12;startSize=8;endSize=8;curved=1;dashed=1;" parent="1" edge="1">
          <mxGeometry width="50" height="50" relative="1" as="geometry">
            <mxPoint x="-350" y="-260" as="sourcePoint" />
            <mxPoint x="-560" y="-260" as="targetPoint" />
          </mxGeometry>
        </mxCell>
        <mxCell id="yhWROdCaG0-OCKjdrxtF-89" value="할당된 이슈 목록 응답" style="edgeLabel;html=1;align=center;verticalAlign=middle;resizable=0;points=[];fontSize=12;" parent="yhWROdCaG0-OCKjdrxtF-88" vertex="1" connectable="0">
          <mxGeometry x="-0.1333" y="-3" relative="1" as="geometry">
            <mxPoint x="-14" y="3" as="offset" />
          </mxGeometry>
        </mxCell>
        <mxCell id="yhWROdCaG0-OCKjdrxtF-90" value="" style="endArrow=classic;html=1;rounded=0;fontSize=12;startSize=8;endSize=8;curved=1;dashed=1;" parent="1" edge="1">
          <mxGeometry width="50" height="50" relative="1" as="geometry">
            <mxPoint x="-560" y="-240" as="sourcePoint" />
            <mxPoint x="20" y="-240" as="targetPoint" />
          </mxGeometry>
        </mxCell>
        <mxCell id="yhWROdCaG0-OCKjdrxtF-91" value="이슈 목록 응답" style="edgeLabel;html=1;align=center;verticalAlign=middle;resizable=0;points=[];fontSize=12;" parent="yhWROdCaG0-OCKjdrxtF-90" vertex="1" connectable="0">
          <mxGeometry x="-0.2355" y="4" relative="1" as="geometry">
            <mxPoint x="-4" y="4" as="offset" />
          </mxGeometry>
        </mxCell>
        <mxCell id="yhWROdCaG0-OCKjdrxtF-92" value="" style="endArrow=classic;html=1;rounded=0;fontSize=12;startSize=8;endSize=8;curved=1;dashed=1;" parent="1" edge="1">
          <mxGeometry width="50" height="50" relative="1" as="geometry">
            <mxPoint x="20" y="-210" as="sourcePoint" />
            <mxPoint x="-560" y="-210" as="targetPoint" />
          </mxGeometry>
        </mxCell>
        <mxCell id="yhWROdCaG0-OCKjdrxtF-93" value="이슈 처리 후 상태 변경 요청" style="edgeLabel;html=1;align=center;verticalAlign=middle;resizable=0;points=[];fontSize=12;" parent="yhWROdCaG0-OCKjdrxtF-92" vertex="1" connectable="0">
          <mxGeometry x="-0.1333" y="-3" relative="1" as="geometry">
            <mxPoint x="-14" y="3" as="offset" />
          </mxGeometry>
        </mxCell>
        <mxCell id="yhWROdCaG0-OCKjdrxtF-94" value="" style="endArrow=classic;html=1;rounded=0;fontSize=12;startSize=8;endSize=8;curved=1;dashed=1;" parent="1" edge="1">
          <mxGeometry width="50" height="50" relative="1" as="geometry">
            <mxPoint x="-560" y="-180" as="sourcePoint" />
            <mxPoint x="-350" y="-180" as="targetPoint" />
          </mxGeometry>
        </mxCell>
        <mxCell id="yhWROdCaG0-OCKjdrxtF-95" value="이슈 업데이트" style="edgeLabel;html=1;align=center;verticalAlign=middle;resizable=0;points=[];fontSize=12;" parent="yhWROdCaG0-OCKjdrxtF-94" vertex="1" connectable="0">
          <mxGeometry x="-0.0154" y="-3" relative="1" as="geometry">
            <mxPoint x="-6" y="-3" as="offset" />
          </mxGeometry>
        </mxCell>
        <mxCell id="yhWROdCaG0-OCKjdrxtF-96" value="" style="endArrow=classic;html=1;rounded=0;fontSize=12;startSize=8;endSize=8;curved=1;dashed=1;" parent="1" edge="1">
          <mxGeometry width="50" height="50" relative="1" as="geometry">
            <mxPoint x="-350" y="-150" as="sourcePoint" />
            <mxPoint x="-560" y="-150" as="targetPoint" />
          </mxGeometry>
        </mxCell>
        <mxCell id="yhWROdCaG0-OCKjdrxtF-97" value="업데이트 완료 응답" style="edgeLabel;html=1;align=center;verticalAlign=middle;resizable=0;points=[];fontSize=12;" parent="yhWROdCaG0-OCKjdrxtF-96" vertex="1" connectable="0">
          <mxGeometry x="-0.1333" y="-3" relative="1" as="geometry">
            <mxPoint x="-14" y="3" as="offset" />
          </mxGeometry>
        </mxCell>
        <mxCell id="yhWROdCaG0-OCKjdrxtF-98" value="" style="endArrow=classic;html=1;rounded=0;fontSize=12;startSize=8;endSize=8;curved=1;dashed=1;" parent="1" edge="1">
          <mxGeometry width="50" height="50" relative="1" as="geometry">
            <mxPoint x="-560" y="-120" as="sourcePoint" />
            <mxPoint x="20" y="-120" as="targetPoint" />
          </mxGeometry>
        </mxCell>
        <mxCell id="yhWROdCaG0-OCKjdrxtF-99" value="이슈 상태 변경 완료 응답" style="edgeLabel;html=1;align=center;verticalAlign=middle;resizable=0;points=[];fontSize=12;" parent="yhWROdCaG0-OCKjdrxtF-98" vertex="1" connectable="0">
          <mxGeometry x="-0.2355" y="4" relative="1" as="geometry">
            <mxPoint x="-4" y="4" as="offset" />
          </mxGeometry>
        </mxCell>
        <mxCell id="yhWROdCaG0-OCKjdrxtF-100" value="" style="endArrow=classic;html=1;rounded=0;fontSize=12;startSize=8;endSize=8;curved=1;dashed=1;" parent="1" edge="1">
          <mxGeometry width="50" height="50" relative="1" as="geometry">
            <mxPoint x="20" y="-90" as="sourcePoint" />
            <mxPoint x="-560" y="-90" as="targetPoint" />
          </mxGeometry>
        </mxCell>
        <mxCell id="yhWROdCaG0-OCKjdrxtF-101" value="코멘트 추가 요청" style="edgeLabel;html=1;align=center;verticalAlign=middle;resizable=0;points=[];fontSize=12;" parent="yhWROdCaG0-OCKjdrxtF-100" vertex="1" connectable="0">
          <mxGeometry x="-0.1333" y="-3" relative="1" as="geometry">
            <mxPoint x="-14" y="3" as="offset" />
          </mxGeometry>
        </mxCell>
        <mxCell id="yhWROdCaG0-OCKjdrxtF-102" value="" style="endArrow=classic;html=1;rounded=0;fontSize=12;startSize=8;endSize=8;curved=1;dashed=1;" parent="1" edge="1">
          <mxGeometry width="50" height="50" relative="1" as="geometry">
            <mxPoint x="-560" y="-70" as="sourcePoint" />
            <mxPoint x="-350" y="-70" as="targetPoint" />
          </mxGeometry>
        </mxCell>
        <mxCell id="yhWROdCaG0-OCKjdrxtF-103" value="코멘트 정보 저장" style="edgeLabel;html=1;align=center;verticalAlign=middle;resizable=0;points=[];fontSize=12;" parent="yhWROdCaG0-OCKjdrxtF-102" vertex="1" connectable="0">
          <mxGeometry x="-0.0154" y="-3" relative="1" as="geometry">
            <mxPoint x="-6" y="-13" as="offset" />
          </mxGeometry>
        </mxCell>
        <mxCell id="yhWROdCaG0-OCKjdrxtF-104" value="" style="endArrow=classic;html=1;rounded=0;fontSize=12;startSize=8;endSize=8;curved=1;dashed=1;" parent="1" edge="1">
          <mxGeometry width="50" height="50" relative="1" as="geometry">
            <mxPoint x="-350" y="-50" as="sourcePoint" />
            <mxPoint x="-560" y="-50" as="targetPoint" />
          </mxGeometry>
        </mxCell>
        <mxCell id="yhWROdCaG0-OCKjdrxtF-105" value="&lt;div style=&quot;text-align: left;&quot;&gt;&lt;font face=&quot;Söhne Mono, Monaco, Andale Mono, Ubuntu Mono, monospace&quot; color=&quot;#ffffff&quot;&gt;&lt;span style=&quot;font-size: 14px; white-space-collapse: preserve;&quot;&gt;저장 완료 응답&lt;/span&gt;&lt;/font&gt;&lt;/div&gt;" style="edgeLabel;html=1;align=center;verticalAlign=middle;resizable=0;points=[];fontSize=12;" parent="yhWROdCaG0-OCKjdrxtF-104" vertex="1" connectable="0">
          <mxGeometry x="-0.1333" y="-3" relative="1" as="geometry">
            <mxPoint x="-14" y="-11" as="offset" />
          </mxGeometry>
        </mxCell>
        <mxCell id="yhWROdCaG0-OCKjdrxtF-106" value="저장 완료 응답" style="edgeLabel;html=1;align=center;verticalAlign=middle;resizable=0;points=[];fontSize=12;" parent="yhWROdCaG0-OCKjdrxtF-104" vertex="1" connectable="0">
          <mxGeometry x="0.0286" y="2" relative="1" as="geometry">
            <mxPoint as="offset" />
          </mxGeometry>
        </mxCell>
        <mxCell id="yhWROdCaG0-OCKjdrxtF-107" value="" style="endArrow=classic;html=1;rounded=0;fontSize=12;startSize=8;endSize=8;curved=1;dashed=1;" parent="1" edge="1">
          <mxGeometry width="50" height="50" relative="1" as="geometry">
            <mxPoint x="-560" y="-20" as="sourcePoint" />
            <mxPoint x="20" y="-20" as="targetPoint" />
          </mxGeometry>
        </mxCell>
        <mxCell id="yhWROdCaG0-OCKjdrxtF-108" value="코멘트 추가 완료 응답" style="edgeLabel;html=1;align=center;verticalAlign=middle;resizable=0;points=[];fontSize=12;" parent="yhWROdCaG0-OCKjdrxtF-107" vertex="1" connectable="0">
          <mxGeometry x="-0.2355" y="4" relative="1" as="geometry">
            <mxPoint x="-4" y="4" as="offset" />
          </mxGeometry>
        </mxCell>
        <mxCell id="IpeJlfz2Ngx_QfQyB9ng-5" value="" style="endArrow=classic;html=1;rounded=0;fontSize=12;startSize=8;endSize=8;curved=1;dashed=1;" parent="1" edge="1">
          <mxGeometry width="50" height="50" relative="1" as="geometry">
            <mxPoint x="-170" y="10" as="sourcePoint" />
            <mxPoint x="-560" y="10" as="targetPoint" />
          </mxGeometry>
        </mxCell>
        <mxCell id="IpeJlfz2Ngx_QfQyB9ng-6" value="자신이 report한 이슈 검색 요청" style="edgeLabel;html=1;align=center;verticalAlign=middle;resizable=0;points=[];fontSize=12;" parent="IpeJlfz2Ngx_QfQyB9ng-5" vertex="1" connectable="0">
          <mxGeometry x="-0.1333" y="-3" relative="1" as="geometry">
            <mxPoint x="-14" y="3" as="offset" />
          </mxGeometry>
        </mxCell>
        <mxCell id="IpeJlfz2Ngx_QfQyB9ng-7" value="" style="endArrow=classic;html=1;rounded=0;fontSize=12;startSize=8;endSize=8;curved=1;dashed=1;" parent="1" edge="1">
          <mxGeometry width="50" height="50" relative="1" as="geometry">
            <mxPoint x="-560" y="40" as="sourcePoint" />
            <mxPoint x="-350" y="40" as="targetPoint" />
          </mxGeometry>
        </mxCell>
        <mxCell id="IpeJlfz2Ngx_QfQyB9ng-8" value="fixed 상태의 이슈 조회" style="edgeLabel;html=1;align=center;verticalAlign=middle;resizable=0;points=[];fontSize=12;" parent="IpeJlfz2Ngx_QfQyB9ng-7" vertex="1" connectable="0">
          <mxGeometry x="-0.0154" y="-3" relative="1" as="geometry">
            <mxPoint x="-6" y="-13" as="offset" />
          </mxGeometry>
        </mxCell>
        <mxCell id="IpeJlfz2Ngx_QfQyB9ng-9" value="" style="endArrow=classic;html=1;rounded=0;fontSize=12;startSize=8;endSize=8;curved=1;dashed=1;" parent="1" edge="1">
          <mxGeometry width="50" height="50" relative="1" as="geometry">
            <mxPoint x="-350" y="60" as="sourcePoint" />
            <mxPoint x="-560" y="60" as="targetPoint" />
          </mxGeometry>
        </mxCell>
        <mxCell id="IpeJlfz2Ngx_QfQyB9ng-10" value="&lt;div style=&quot;text-align: left;&quot;&gt;&lt;font face=&quot;Söhne Mono, Monaco, Andale Mono, Ubuntu Mono, monospace&quot; color=&quot;#ffffff&quot;&gt;&lt;span style=&quot;font-size: 14px; white-space-collapse: preserve;&quot;&gt;저장 완료 응답&lt;/span&gt;&lt;/font&gt;&lt;/div&gt;" style="edgeLabel;html=1;align=center;verticalAlign=middle;resizable=0;points=[];fontSize=12;" parent="IpeJlfz2Ngx_QfQyB9ng-9" vertex="1" connectable="0">
          <mxGeometry x="-0.1333" y="-3" relative="1" as="geometry">
            <mxPoint x="-14" y="-11" as="offset" />
          </mxGeometry>
        </mxCell>
        <mxCell id="IpeJlfz2Ngx_QfQyB9ng-11" value="fixed 상태의 이슈 목록 응답" style="edgeLabel;html=1;align=center;verticalAlign=middle;resizable=0;points=[];fontSize=12;" parent="IpeJlfz2Ngx_QfQyB9ng-9" vertex="1" connectable="0">
          <mxGeometry x="0.0286" y="2" relative="1" as="geometry">
            <mxPoint as="offset" />
          </mxGeometry>
        </mxCell>
        <mxCell id="IpeJlfz2Ngx_QfQyB9ng-12" value="" style="endArrow=classic;html=1;rounded=0;fontSize=12;startSize=8;endSize=8;curved=1;dashed=1;" parent="1" edge="1">
          <mxGeometry width="50" height="50" relative="1" as="geometry">
            <mxPoint x="-560" y="90" as="sourcePoint" />
            <mxPoint x="-160" y="90" as="targetPoint" />
          </mxGeometry>
        </mxCell>
        <mxCell id="IpeJlfz2Ngx_QfQyB9ng-13" value="이슈 목록 응답" style="edgeLabel;html=1;align=center;verticalAlign=middle;resizable=0;points=[];fontSize=12;" parent="IpeJlfz2Ngx_QfQyB9ng-12" vertex="1" connectable="0">
          <mxGeometry x="-0.2355" y="4" relative="1" as="geometry">
            <mxPoint x="-4" y="4" as="offset" />
          </mxGeometry>
        </mxCell>
        <mxCell id="IpeJlfz2Ngx_QfQyB9ng-14" value="" style="endArrow=classic;html=1;rounded=0;fontSize=12;startSize=8;endSize=8;curved=1;dashed=1;" parent="1" edge="1">
          <mxGeometry width="50" height="50" relative="1" as="geometry">
            <mxPoint x="-170" y="120" as="sourcePoint" />
            <mxPoint x="-560" y="120" as="targetPoint" />
          </mxGeometry>
        </mxCell>
        <mxCell id="IpeJlfz2Ngx_QfQyB9ng-15" value="이슈 상태 변경 요청" style="edgeLabel;html=1;align=center;verticalAlign=middle;resizable=0;points=[];fontSize=12;" parent="IpeJlfz2Ngx_QfQyB9ng-14" vertex="1" connectable="0">
          <mxGeometry x="-0.1333" y="-3" relative="1" as="geometry">
            <mxPoint x="-14" y="3" as="offset" />
          </mxGeometry>
        </mxCell>
        <mxCell id="IpeJlfz2Ngx_QfQyB9ng-16" value="" style="endArrow=classic;html=1;rounded=0;fontSize=12;startSize=8;endSize=8;curved=1;dashed=1;" parent="1" edge="1">
          <mxGeometry width="50" height="50" relative="1" as="geometry">
            <mxPoint x="-560" y="150" as="sourcePoint" />
            <mxPoint x="-350" y="150" as="targetPoint" />
          </mxGeometry>
        </mxCell>
        <mxCell id="IpeJlfz2Ngx_QfQyB9ng-17" value="이슈 업데이트" style="edgeLabel;html=1;align=center;verticalAlign=middle;resizable=0;points=[];fontSize=12;" parent="IpeJlfz2Ngx_QfQyB9ng-16" vertex="1" connectable="0">
          <mxGeometry x="-0.0154" y="-3" relative="1" as="geometry">
            <mxPoint x="-6" y="-3" as="offset" />
          </mxGeometry>
        </mxCell>
        <mxCell id="IpeJlfz2Ngx_QfQyB9ng-18" value="" style="endArrow=classic;html=1;rounded=0;fontSize=12;startSize=8;endSize=8;curved=1;dashed=1;" parent="1" edge="1">
          <mxGeometry width="50" height="50" relative="1" as="geometry">
            <mxPoint x="-350" y="180" as="sourcePoint" />
            <mxPoint x="-560" y="180" as="targetPoint" />
          </mxGeometry>
        </mxCell>
        <mxCell id="IpeJlfz2Ngx_QfQyB9ng-19" value="&lt;div style=&quot;text-align: left;&quot;&gt;&lt;font face=&quot;Söhne Mono, Monaco, Andale Mono, Ubuntu Mono, monospace&quot; color=&quot;#ffffff&quot;&gt;&lt;span style=&quot;font-size: 14px; white-space-collapse: preserve;&quot;&gt;저장 완료 응답&lt;/span&gt;&lt;/font&gt;&lt;/div&gt;" style="edgeLabel;html=1;align=center;verticalAlign=middle;resizable=0;points=[];fontSize=12;" parent="IpeJlfz2Ngx_QfQyB9ng-18" vertex="1" connectable="0">
          <mxGeometry x="-0.1333" y="-3" relative="1" as="geometry">
            <mxPoint x="-14" y="-11" as="offset" />
          </mxGeometry>
        </mxCell>
        <mxCell id="IpeJlfz2Ngx_QfQyB9ng-20" value="업데이트 완료 응답" style="edgeLabel;html=1;align=center;verticalAlign=middle;resizable=0;points=[];fontSize=12;" parent="IpeJlfz2Ngx_QfQyB9ng-18" vertex="1" connectable="0">
          <mxGeometry x="0.0286" y="2" relative="1" as="geometry">
            <mxPoint as="offset" />
          </mxGeometry>
        </mxCell>
        <mxCell id="IpeJlfz2Ngx_QfQyB9ng-21" value="" style="endArrow=classic;html=1;rounded=0;fontSize=12;startSize=8;endSize=8;curved=1;dashed=1;" parent="1" edge="1">
          <mxGeometry width="50" height="50" relative="1" as="geometry">
            <mxPoint x="-560" y="210" as="sourcePoint" />
            <mxPoint x="-160" y="210" as="targetPoint" />
          </mxGeometry>
        </mxCell>
        <mxCell id="IpeJlfz2Ngx_QfQyB9ng-22" value="이슈 상태 변경 완료 응답" style="edgeLabel;html=1;align=center;verticalAlign=middle;resizable=0;points=[];fontSize=12;" parent="IpeJlfz2Ngx_QfQyB9ng-21" vertex="1" connectable="0">
          <mxGeometry x="-0.2355" y="4" relative="1" as="geometry">
            <mxPoint x="-4" y="4" as="offset" />
          </mxGeometry>
        </mxCell>
        <mxCell id="zMYD9OSL9NjdkAidlAfr-3" value="" style="endArrow=classic;html=1;rounded=0;fontSize=12;startSize=8;endSize=8;curved=1;dashed=1;" edge="1" parent="1">
          <mxGeometry width="50" height="50" relative="1" as="geometry">
            <mxPoint x="210" y="240" as="sourcePoint" />
            <mxPoint x="-560" y="240" as="targetPoint" />
          </mxGeometry>
        </mxCell>
        <mxCell id="zMYD9OSL9NjdkAidlAfr-4" value="resolved 상태의 이슈 검색 요청" style="edgeLabel;html=1;align=center;verticalAlign=middle;resizable=0;points=[];fontSize=12;" vertex="1" connectable="0" parent="zMYD9OSL9NjdkAidlAfr-3">
          <mxGeometry x="-0.1333" y="-3" relative="1" as="geometry">
            <mxPoint x="-14" y="3" as="offset" />
          </mxGeometry>
        </mxCell>
        <mxCell id="zMYD9OSL9NjdkAidlAfr-5" value="" style="endArrow=classic;html=1;rounded=0;fontSize=12;startSize=8;endSize=8;curved=1;dashed=1;" edge="1" parent="1">
          <mxGeometry width="50" height="50" relative="1" as="geometry">
            <mxPoint x="-560" y="270" as="sourcePoint" />
            <mxPoint x="-350" y="270" as="targetPoint" />
          </mxGeometry>
        </mxCell>
        <mxCell id="zMYD9OSL9NjdkAidlAfr-6" value="resolved 상태의 이슈 조회" style="edgeLabel;html=1;align=center;verticalAlign=middle;resizable=0;points=[];fontSize=12;" vertex="1" connectable="0" parent="zMYD9OSL9NjdkAidlAfr-5">
          <mxGeometry x="-0.0154" y="-3" relative="1" as="geometry">
            <mxPoint x="-6" y="-3" as="offset" />
          </mxGeometry>
        </mxCell>
        <mxCell id="zMYD9OSL9NjdkAidlAfr-7" value="" style="endArrow=classic;html=1;rounded=0;fontSize=12;startSize=8;endSize=8;curved=1;dashed=1;" edge="1" parent="1">
          <mxGeometry width="50" height="50" relative="1" as="geometry">
            <mxPoint x="-350" y="300" as="sourcePoint" />
            <mxPoint x="-560" y="300" as="targetPoint" />
          </mxGeometry>
        </mxCell>
        <mxCell id="zMYD9OSL9NjdkAidlAfr-8" value="&lt;div style=&quot;text-align: left;&quot;&gt;&lt;font face=&quot;Söhne Mono, Monaco, Andale Mono, Ubuntu Mono, monospace&quot; color=&quot;#ffffff&quot;&gt;&lt;span style=&quot;font-size: 14px; white-space-collapse: preserve;&quot;&gt;저장 완료 응답&lt;/span&gt;&lt;/font&gt;&lt;/div&gt;" style="edgeLabel;html=1;align=center;verticalAlign=middle;resizable=0;points=[];fontSize=12;" vertex="1" connectable="0" parent="zMYD9OSL9NjdkAidlAfr-7">
          <mxGeometry x="-0.1333" y="-3" relative="1" as="geometry">
            <mxPoint x="-14" y="-11" as="offset" />
          </mxGeometry>
        </mxCell>
        <mxCell id="zMYD9OSL9NjdkAidlAfr-9" value="resolved 상태의 이슈 목록 응답" style="edgeLabel;html=1;align=center;verticalAlign=middle;resizable=0;points=[];fontSize=12;" vertex="1" connectable="0" parent="zMYD9OSL9NjdkAidlAfr-7">
          <mxGeometry x="0.0286" y="2" relative="1" as="geometry">
            <mxPoint as="offset" />
          </mxGeometry>
        </mxCell>
        <mxCell id="zMYD9OSL9NjdkAidlAfr-10" value="" style="endArrow=classic;html=1;rounded=0;fontSize=12;startSize=8;endSize=8;curved=1;dashed=1;" edge="1" parent="1">
          <mxGeometry width="50" height="50" relative="1" as="geometry">
            <mxPoint x="-560" y="330" as="sourcePoint" />
            <mxPoint x="210" y="330" as="targetPoint" />
          </mxGeometry>
        </mxCell>
        <mxCell id="zMYD9OSL9NjdkAidlAfr-11" value="이슈 목록 응답" style="edgeLabel;html=1;align=center;verticalAlign=middle;resizable=0;points=[];fontSize=12;" vertex="1" connectable="0" parent="zMYD9OSL9NjdkAidlAfr-10">
          <mxGeometry x="-0.2355" y="4" relative="1" as="geometry">
            <mxPoint x="-4" y="4" as="offset" />
          </mxGeometry>
        </mxCell>
        <mxCell id="zMYD9OSL9NjdkAidlAfr-12" value="" style="endArrow=classic;html=1;rounded=0;fontSize=12;startSize=8;endSize=8;curved=1;dashed=1;" edge="1" parent="1">
          <mxGeometry width="50" height="50" relative="1" as="geometry">
            <mxPoint x="210" y="360" as="sourcePoint" />
            <mxPoint x="-560" y="360" as="targetPoint" />
          </mxGeometry>
        </mxCell>
        <mxCell id="zMYD9OSL9NjdkAidlAfr-13" value="이슈 상태 변경 요청" style="edgeLabel;html=1;align=center;verticalAlign=middle;resizable=0;points=[];fontSize=12;" vertex="1" connectable="0" parent="zMYD9OSL9NjdkAidlAfr-12">
          <mxGeometry x="-0.1333" y="-3" relative="1" as="geometry">
            <mxPoint x="-14" y="3" as="offset" />
          </mxGeometry>
        </mxCell>
        <mxCell id="zMYD9OSL9NjdkAidlAfr-14" value="" style="endArrow=classic;html=1;rounded=0;fontSize=12;startSize=8;endSize=8;curved=1;dashed=1;" edge="1" parent="1">
          <mxGeometry width="50" height="50" relative="1" as="geometry">
            <mxPoint x="-560" y="380" as="sourcePoint" />
            <mxPoint x="-350" y="380" as="targetPoint" />
          </mxGeometry>
        </mxCell>
        <mxCell id="zMYD9OSL9NjdkAidlAfr-15" value="이슈 업데이트" style="edgeLabel;html=1;align=center;verticalAlign=middle;resizable=0;points=[];fontSize=12;" vertex="1" connectable="0" parent="zMYD9OSL9NjdkAidlAfr-14">
          <mxGeometry x="-0.0154" y="-3" relative="1" as="geometry">
            <mxPoint x="-6" y="-3" as="offset" />
          </mxGeometry>
        </mxCell>
        <mxCell id="zMYD9OSL9NjdkAidlAfr-16" value="" style="endArrow=classic;html=1;rounded=0;fontSize=12;startSize=8;endSize=8;curved=1;dashed=1;" edge="1" parent="1">
          <mxGeometry width="50" height="50" relative="1" as="geometry">
            <mxPoint x="-350" y="410" as="sourcePoint" />
            <mxPoint x="-560" y="410" as="targetPoint" />
          </mxGeometry>
        </mxCell>
        <mxCell id="zMYD9OSL9NjdkAidlAfr-17" value="&lt;div style=&quot;text-align: left;&quot;&gt;&lt;font face=&quot;Söhne Mono, Monaco, Andale Mono, Ubuntu Mono, monospace&quot; color=&quot;#ffffff&quot;&gt;&lt;span style=&quot;font-size: 14px; white-space-collapse: preserve;&quot;&gt;저장 완료 응답&lt;/span&gt;&lt;/font&gt;&lt;/div&gt;" style="edgeLabel;html=1;align=center;verticalAlign=middle;resizable=0;points=[];fontSize=12;" vertex="1" connectable="0" parent="zMYD9OSL9NjdkAidlAfr-16">
          <mxGeometry x="-0.1333" y="-3" relative="1" as="geometry">
            <mxPoint x="-14" y="-11" as="offset" />
          </mxGeometry>
        </mxCell>
        <mxCell id="zMYD9OSL9NjdkAidlAfr-18" value="업데이트 완료 응답" style="edgeLabel;html=1;align=center;verticalAlign=middle;resizable=0;points=[];fontSize=12;" vertex="1" connectable="0" parent="zMYD9OSL9NjdkAidlAfr-16">
          <mxGeometry x="0.0286" y="2" relative="1" as="geometry">
            <mxPoint as="offset" />
          </mxGeometry>
        </mxCell>
        <mxCell id="zMYD9OSL9NjdkAidlAfr-19" value="" style="endArrow=classic;html=1;rounded=0;fontSize=12;startSize=8;endSize=8;curved=1;dashed=1;" edge="1" parent="1">
          <mxGeometry width="50" height="50" relative="1" as="geometry">
            <mxPoint x="-560" y="440" as="sourcePoint" />
            <mxPoint x="210" y="440" as="targetPoint" />
          </mxGeometry>
        </mxCell>
        <mxCell id="zMYD9OSL9NjdkAidlAfr-20" value="이슈 상태 변경 완료 응답" style="edgeLabel;html=1;align=center;verticalAlign=middle;resizable=0;points=[];fontSize=12;" vertex="1" connectable="0" parent="zMYD9OSL9NjdkAidlAfr-19">
          <mxGeometry x="-0.2355" y="4" relative="1" as="geometry">
            <mxPoint x="-4" y="4" as="offset" />
          </mxGeometry>
        </mxCell>
        <mxCell id="zMYD9OSL9NjdkAidlAfr-21" value="" style="endArrow=classic;html=1;rounded=0;fontSize=12;startSize=8;endSize=8;curved=1;dashed=1;" edge="1" parent="1">
          <mxGeometry width="50" height="50" relative="1" as="geometry">
            <mxPoint x="210" y="460" as="sourcePoint" />
            <mxPoint x="-560" y="460" as="targetPoint" />
          </mxGeometry>
        </mxCell>
        <mxCell id="zMYD9OSL9NjdkAidlAfr-22" value="new 상태의 이슈 검색 요청" style="edgeLabel;html=1;align=center;verticalAlign=middle;resizable=0;points=[];fontSize=12;" vertex="1" connectable="0" parent="zMYD9OSL9NjdkAidlAfr-21">
          <mxGeometry x="-0.1333" y="-3" relative="1" as="geometry">
            <mxPoint x="-14" y="3" as="offset" />
          </mxGeometry>
        </mxCell>
        <mxCell id="zMYD9OSL9NjdkAidlAfr-23" value="" style="endArrow=classic;html=1;rounded=0;fontSize=12;startSize=8;endSize=8;curved=1;dashed=1;" edge="1" parent="1">
          <mxGeometry width="50" height="50" relative="1" as="geometry">
            <mxPoint x="-560" y="480" as="sourcePoint" />
            <mxPoint x="-350" y="480" as="targetPoint" />
          </mxGeometry>
        </mxCell>
        <mxCell id="zMYD9OSL9NjdkAidlAfr-24" value="new 상태의 이슈 조회" style="edgeLabel;html=1;align=center;verticalAlign=middle;resizable=0;points=[];fontSize=12;" vertex="1" connectable="0" parent="zMYD9OSL9NjdkAidlAfr-23">
          <mxGeometry x="-0.0154" y="-3" relative="1" as="geometry">
            <mxPoint x="-6" y="-3" as="offset" />
          </mxGeometry>
        </mxCell>
        <mxCell id="zMYD9OSL9NjdkAidlAfr-25" value="" style="endArrow=classic;html=1;rounded=0;fontSize=12;startSize=8;endSize=8;curved=1;dashed=1;" edge="1" parent="1">
          <mxGeometry width="50" height="50" relative="1" as="geometry">
            <mxPoint x="-350" y="510" as="sourcePoint" />
            <mxPoint x="-560" y="510" as="targetPoint" />
          </mxGeometry>
        </mxCell>
        <mxCell id="zMYD9OSL9NjdkAidlAfr-26" value="&lt;div style=&quot;text-align: left;&quot;&gt;&lt;font face=&quot;Söhne Mono, Monaco, Andale Mono, Ubuntu Mono, monospace&quot; color=&quot;#ffffff&quot;&gt;&lt;span style=&quot;font-size: 14px; white-space-collapse: preserve;&quot;&gt;저장 완료 응답&lt;/span&gt;&lt;/font&gt;&lt;/div&gt;" style="edgeLabel;html=1;align=center;verticalAlign=middle;resizable=0;points=[];fontSize=12;" vertex="1" connectable="0" parent="zMYD9OSL9NjdkAidlAfr-25">
          <mxGeometry x="-0.1333" y="-3" relative="1" as="geometry">
            <mxPoint x="-14" y="-11" as="offset" />
          </mxGeometry>
        </mxCell>
        <mxCell id="zMYD9OSL9NjdkAidlAfr-27" value="new 상태의 이슈 목록 응답" style="edgeLabel;html=1;align=center;verticalAlign=middle;resizable=0;points=[];fontSize=12;" vertex="1" connectable="0" parent="zMYD9OSL9NjdkAidlAfr-25">
          <mxGeometry x="0.0286" y="2" relative="1" as="geometry">
            <mxPoint as="offset" />
          </mxGeometry>
        </mxCell>
        <mxCell id="zMYD9OSL9NjdkAidlAfr-28" value="" style="endArrow=classic;html=1;rounded=0;fontSize=12;startSize=8;endSize=8;curved=1;dashed=1;" edge="1" parent="1">
          <mxGeometry width="50" height="50" relative="1" as="geometry">
            <mxPoint x="-560" y="530" as="sourcePoint" />
            <mxPoint x="210" y="530" as="targetPoint" />
          </mxGeometry>
        </mxCell>
        <mxCell id="zMYD9OSL9NjdkAidlAfr-29" value="이슈 목록 응답" style="edgeLabel;html=1;align=center;verticalAlign=middle;resizable=0;points=[];fontSize=12;" vertex="1" connectable="0" parent="zMYD9OSL9NjdkAidlAfr-28">
          <mxGeometry x="-0.2355" y="4" relative="1" as="geometry">
            <mxPoint x="-4" y="4" as="offset" />
          </mxGeometry>
        </mxCell>
        <mxCell id="zMYD9OSL9NjdkAidlAfr-30" value="" style="endArrow=classic;html=1;rounded=0;fontSize=12;startSize=8;endSize=8;curved=1;dashed=1;" edge="1" parent="1">
          <mxGeometry width="50" height="50" relative="1" as="geometry">
            <mxPoint x="210" y="550" as="sourcePoint" />
            <mxPoint x="-560" y="550" as="targetPoint" />
          </mxGeometry>
        </mxCell>
        <mxCell id="zMYD9OSL9NjdkAidlAfr-31" value="특정 이슈 상세 정보 요청" style="edgeLabel;html=1;align=center;verticalAlign=middle;resizable=0;points=[];fontSize=12;" vertex="1" connectable="0" parent="zMYD9OSL9NjdkAidlAfr-30">
          <mxGeometry x="-0.1333" y="-3" relative="1" as="geometry">
            <mxPoint x="-14" y="3" as="offset" />
          </mxGeometry>
        </mxCell>
        <mxCell id="zMYD9OSL9NjdkAidlAfr-32" value="" style="endArrow=classic;html=1;rounded=0;fontSize=12;startSize=8;endSize=8;curved=1;dashed=1;" edge="1" parent="1">
          <mxGeometry width="50" height="50" relative="1" as="geometry">
            <mxPoint x="-560" y="570" as="sourcePoint" />
            <mxPoint x="-350" y="570" as="targetPoint" />
          </mxGeometry>
        </mxCell>
        <mxCell id="zMYD9OSL9NjdkAidlAfr-33" value="이슈 상세 정보 조회" style="edgeLabel;html=1;align=center;verticalAlign=middle;resizable=0;points=[];fontSize=12;" vertex="1" connectable="0" parent="zMYD9OSL9NjdkAidlAfr-32">
          <mxGeometry x="-0.0154" y="-3" relative="1" as="geometry">
            <mxPoint x="-6" y="-3" as="offset" />
          </mxGeometry>
        </mxCell>
        <mxCell id="zMYD9OSL9NjdkAidlAfr-34" value="" style="endArrow=classic;html=1;rounded=0;fontSize=12;startSize=8;endSize=8;curved=1;dashed=1;" edge="1" parent="1">
          <mxGeometry width="50" height="50" relative="1" as="geometry">
            <mxPoint x="-350" y="600" as="sourcePoint" />
            <mxPoint x="-560" y="600" as="targetPoint" />
          </mxGeometry>
        </mxCell>
        <mxCell id="zMYD9OSL9NjdkAidlAfr-35" value="&lt;div style=&quot;text-align: left;&quot;&gt;&lt;font face=&quot;Söhne Mono, Monaco, Andale Mono, Ubuntu Mono, monospace&quot; color=&quot;#ffffff&quot;&gt;&lt;span style=&quot;font-size: 14px; white-space-collapse: preserve;&quot;&gt;저장 완료 응답&lt;/span&gt;&lt;/font&gt;&lt;/div&gt;" style="edgeLabel;html=1;align=center;verticalAlign=middle;resizable=0;points=[];fontSize=12;" vertex="1" connectable="0" parent="zMYD9OSL9NjdkAidlAfr-34">
          <mxGeometry x="-0.1333" y="-3" relative="1" as="geometry">
            <mxPoint x="-14" y="-11" as="offset" />
          </mxGeometry>
        </mxCell>
        <mxCell id="zMYD9OSL9NjdkAidlAfr-36" value="이슈 상세 정보 응답" style="edgeLabel;html=1;align=center;verticalAlign=middle;resizable=0;points=[];fontSize=12;" vertex="1" connectable="0" parent="zMYD9OSL9NjdkAidlAfr-34">
          <mxGeometry x="0.0286" y="2" relative="1" as="geometry">
            <mxPoint as="offset" />
          </mxGeometry>
        </mxCell>
        <mxCell id="zMYD9OSL9NjdkAidlAfr-37" value="" style="endArrow=classic;html=1;rounded=0;fontSize=12;startSize=8;endSize=8;curved=1;dashed=1;" edge="1" parent="1">
          <mxGeometry width="50" height="50" relative="1" as="geometry">
            <mxPoint x="-560" y="620" as="sourcePoint" />
            <mxPoint x="210" y="620" as="targetPoint" />
          </mxGeometry>
        </mxCell>
        <mxCell id="zMYD9OSL9NjdkAidlAfr-38" value="이슈 상세 정보 응답" style="edgeLabel;html=1;align=center;verticalAlign=middle;resizable=0;points=[];fontSize=12;" vertex="1" connectable="0" parent="zMYD9OSL9NjdkAidlAfr-37">
          <mxGeometry x="-0.2355" y="4" relative="1" as="geometry">
            <mxPoint x="-4" y="4" as="offset" />
          </mxGeometry>
        </mxCell>
        <mxCell id="zMYD9OSL9NjdkAidlAfr-43" value="" style="endArrow=classic;html=1;rounded=0;fontSize=12;startSize=8;endSize=8;curved=1;dashed=1;" edge="1" parent="1">
          <mxGeometry width="50" height="50" relative="1" as="geometry">
            <mxPoint x="-560" y="640" as="sourcePoint" />
            <mxPoint x="-350" y="640" as="targetPoint" />
          </mxGeometry>
        </mxCell>
        <mxCell id="zMYD9OSL9NjdkAidlAfr-44" value="fixed된 이슈의 개발자 이력 조회" style="edgeLabel;html=1;align=center;verticalAlign=middle;resizable=0;points=[];fontSize=12;" vertex="1" connectable="0" parent="zMYD9OSL9NjdkAidlAfr-43">
          <mxGeometry x="-0.0154" y="-3" relative="1" as="geometry">
            <mxPoint x="-6" y="-3" as="offset" />
          </mxGeometry>
        </mxCell>
        <mxCell id="zMYD9OSL9NjdkAidlAfr-45" value="" style="endArrow=classic;html=1;rounded=0;fontSize=12;startSize=8;endSize=8;curved=1;dashed=1;" edge="1" parent="1">
          <mxGeometry width="50" height="50" relative="1" as="geometry">
            <mxPoint x="-350" y="670" as="sourcePoint" />
            <mxPoint x="-560" y="670" as="targetPoint" />
          </mxGeometry>
        </mxCell>
        <mxCell id="zMYD9OSL9NjdkAidlAfr-46" value="&lt;div style=&quot;text-align: left;&quot;&gt;&lt;font face=&quot;Söhne Mono, Monaco, Andale Mono, Ubuntu Mono, monospace&quot; color=&quot;#ffffff&quot;&gt;&lt;span style=&quot;font-size: 14px; white-space-collapse: preserve;&quot;&gt;저장 완료 응답&lt;/span&gt;&lt;/font&gt;&lt;/div&gt;" style="edgeLabel;html=1;align=center;verticalAlign=middle;resizable=0;points=[];fontSize=12;" vertex="1" connectable="0" parent="zMYD9OSL9NjdkAidlAfr-45">
          <mxGeometry x="-0.1333" y="-3" relative="1" as="geometry">
            <mxPoint x="-14" y="-11" as="offset" />
          </mxGeometry>
        </mxCell>
        <mxCell id="zMYD9OSL9NjdkAidlAfr-47" value="개발자 이력 응답" style="edgeLabel;html=1;align=center;verticalAlign=middle;resizable=0;points=[];fontSize=12;" vertex="1" connectable="0" parent="zMYD9OSL9NjdkAidlAfr-45">
          <mxGeometry x="0.0286" y="2" relative="1" as="geometry">
            <mxPoint as="offset" />
          </mxGeometry>
        </mxCell>
        <mxCell id="zMYD9OSL9NjdkAidlAfr-48" value="" style="endArrow=classic;html=1;rounded=0;fontSize=12;startSize=8;endSize=8;curved=1;dashed=1;" edge="1" parent="1">
          <mxGeometry width="50" height="50" relative="1" as="geometry">
            <mxPoint x="-560" y="690" as="sourcePoint" />
            <mxPoint x="210" y="690" as="targetPoint" />
          </mxGeometry>
        </mxCell>
        <mxCell id="zMYD9OSL9NjdkAidlAfr-49" value="개발자 추천 목록 응답" style="edgeLabel;html=1;align=center;verticalAlign=middle;resizable=0;points=[];fontSize=12;" vertex="1" connectable="0" parent="zMYD9OSL9NjdkAidlAfr-48">
          <mxGeometry x="-0.2355" y="4" relative="1" as="geometry">
            <mxPoint x="-4" y="4" as="offset" />
          </mxGeometry>
        </mxCell>
      </root>
    </mxGraphModel>
  </diagram>
</mxfile>
